<svg xmlns="http://www.w3.org/2000/svg" fill="none" viewBox="0 0 164 57">
  <path d="M65.776 32.198c-1.451 0-2.763-.313-3.934-.937a7.075 7.075 0 01-2.736-2.572c-.652-1.103-.979-2.339-.979-3.708 0-1.369.327-2.598.979-3.688a7.028 7.028 0 012.736-2.591c1.171-.625 2.483-.937 3.934-.937 1.45 0 2.755.312 3.914.937a7.027 7.027 0 012.736 2.591c.665 1.09.998 2.32.998 3.688 0 1.37-.333 2.605-.999 3.708a7.074 7.074 0 01-2.735 2.572c-1.159.625-2.463.937-3.914.937zm0-2.751c.825 0 1.57-.186 2.236-.558a4.08 4.08 0 001.558-1.595c.386-.678.579-1.449.579-2.313 0-.864-.193-1.634-.58-2.312a3.944 3.944 0 00-1.557-1.575c-.665-.385-1.41-.578-2.236-.578-.826 0-1.571.193-2.237.578a4.08 4.08 0 00-1.577 1.575c-.373.678-.56 1.448-.56 2.312 0 .864.187 1.635.56 2.313.386.678.912 1.21 1.577 1.595.666.372 1.411.558 2.237.558zm15.81-8.373c.999 0 1.904.233 2.716.698a4.84 4.84 0 011.937 1.934c.466.823.7 1.787.7 2.89 0 1.103-.234 2.073-.7 2.91a5.012 5.012 0 01-1.937 1.934c-.812.452-1.717.678-2.716.678-1.37 0-2.45-.432-3.235-1.296v5.004l-3.115-.821V21.234h2.976v1.236c.772-.93 1.897-1.396 3.374-1.396zm-.539 8.492c.799 0 1.451-.265 1.957-.797.52-.545.779-1.27.779-2.173 0-.904-.26-1.621-.779-2.153-.506-.545-1.158-.817-1.957-.817-.798 0-1.457.272-1.977.817-.506.532-.759 1.25-.759 2.153 0 .904.253 1.628.76 2.173.519.532 1.178.797 1.976.797zm18.101-2.93c0 .04-.02.319-.06.837h-8.127c.146.665.492 1.19 1.038 1.575.546.386 1.225.578 2.037.578.559 0 1.052-.08 1.477-.239.44-.173.846-.439 1.219-.797l1.657 1.794c-1.012 1.156-2.49 1.734-4.433 1.734-1.212 0-2.283-.233-3.215-.698-.932-.478-1.65-1.136-2.157-1.973-.506-.837-.759-1.788-.759-2.85 0-1.05.247-1.994.74-2.832a5.238 5.238 0 012.056-1.973c.879-.479 1.857-.718 2.936-.718 1.051 0 2.003.226 2.855.678a4.87 4.87 0 011.997 1.954c.493.837.739 1.814.739 2.93zm-5.572-3.21c-.705 0-1.297.2-1.777.599-.479.398-.772.943-.878 1.634h5.291c-.106-.678-.399-1.216-.878-1.615-.48-.412-1.065-.618-1.758-.618zm13.776-2.352c1.332 0 2.403.399 3.216 1.196.825.798 1.238 1.98 1.238 3.549v6.14h-3.116v-5.662c0-.85-.186-1.482-.559-1.894-.372-.425-.912-.638-1.617-.638-.786 0-1.411.246-1.877.738-.466.478-.699 1.196-.699 2.153v5.303h-3.115V21.234h2.975v1.255a4.032 4.032 0 011.538-1.036 5.236 5.236 0 012.016-.379zM69.957 43.855c.806.269 1.437.722 1.893 1.36.456.623.684 1.395.684 2.316 0 1.304-.483 2.31-1.45 3.018-.952.694-2.348 1.042-4.187 1.042H59.61V36.714h6.886c1.718 0 3.033.347 3.946 1.041.926.695 1.389 1.637 1.389 2.827 0 .723-.168 1.367-.504 1.934a3.463 3.463 0 01-1.369 1.339zm-7.107-4.548v3.506h3.242c.805 0 1.416-.148 1.832-.446.416-.297.624-.736.624-1.317s-.208-1.013-.624-1.297c-.416-.297-1.027-.446-1.832-.446H62.85zm3.806 9.69c.859 0 1.503-.148 1.932-.446.443-.297.665-.758.665-1.38 0-1.233-.866-1.85-2.597-1.85H62.85v3.677h3.806zm12.878 2.763c-1.141 0-2.168-.247-3.08-.743a5.536 5.536 0 01-2.115-2.104c-.51-.893-.765-1.906-.765-3.04 0-1.133.255-2.146.765-3.038a5.386 5.386 0 012.114-2.083c.913-.51 1.94-.765 3.08-.765 1.142 0 2.162.255 3.061.765a5.38 5.38 0 012.114 2.083c.51.892.765 1.905.765 3.039 0 1.133-.255 2.146-.765 3.039a5.537 5.537 0 01-2.114 2.104c-.9.496-1.92.744-3.06.744zm0-2.72c.805 0 1.463-.283 1.973-.85.523-.58.785-1.353.785-2.316 0-.964-.262-1.729-.785-2.295-.51-.581-1.168-.872-1.973-.872-.806 0-1.47.29-1.993.872-.524.566-.786 1.331-.786 2.295 0 .963.262 1.735.786 2.316.523.567 1.187.85 1.993.85zm12.79 2.72c-1.141 0-2.168-.247-3.08-.743a5.536 5.536 0 01-2.115-2.104c-.51-.893-.765-1.906-.765-3.04 0-1.133.255-2.146.765-3.038a5.386 5.386 0 012.114-2.083c.913-.51 1.94-.765 3.08-.765 1.142 0 2.162.255 3.061.765a5.38 5.38 0 012.114 2.083c.51.892.765 1.905.765 3.039 0 1.133-.255 2.146-.765 3.039a5.536 5.536 0 01-2.114 2.104c-.9.496-1.92.744-3.06.744zm0-2.72c.805 0 1.463-.283 1.973-.85.523-.58.785-1.353.785-2.316 0-.964-.262-1.729-.785-2.295-.51-.581-1.168-.872-1.973-.872-.805 0-1.47.29-1.993.872-.524.566-.786 1.331-.786 2.295 0 .963.262 1.735.786 2.316.523.567 1.188.85 1.993.85zm14.622 1.998a3.3 3.3 0 01-1.148.553c-.443.113-.912.17-1.409.17-1.288 0-2.288-.348-3-1.042-.698-.694-1.047-1.714-1.047-3.06v-4.697h-1.67v-2.55h1.67v-3.698l3.141.914v2.784h2.698v2.55h-2.698v4.654c0 .482.114.858.342 1.127.242.255.578.382 1.007.382.497 0 .919-.141 1.268-.425l.846 2.338zm6.261.722c-1.155 0-2.195-.247-3.121-.743a5.636 5.636 0 01-2.154-2.104c-.51-.893-.765-1.906-.765-3.04 0-1.133.255-2.146.765-3.038a5.484 5.484 0 012.154-2.083c.926-.51 1.966-.765 3.121-.765 1.141 0 2.134.255 2.979.765a4.323 4.323 0 011.873 2.146l-2.436 1.382c-.564-1.049-1.376-1.573-2.436-1.573-.819 0-1.497.284-2.034.85-.537.567-.805 1.34-.805 2.317 0 .977.268 1.75.805 2.316.537.567 1.215.85 2.034.85 1.073 0 1.885-.524 2.436-1.572l2.436 1.402a4.46 4.46 0 01-1.873 2.126c-.845.51-1.838.765-2.979.765zm10.626-11.773c1.678 0 2.967.425 3.866 1.275.899.836 1.349 2.104 1.349 3.804v6.525h-2.939v-1.424c-.591 1.062-1.692 1.594-3.302 1.594-.832 0-1.557-.15-2.175-.447-.604-.297-1.067-.708-1.389-1.232a3.345 3.345 0 01-.483-1.785c0-1.063.376-1.899 1.127-2.508.765-.61 1.94-.914 3.524-.914h2.496c0-.723-.208-1.275-.624-1.658-.416-.396-1.04-.595-1.872-.595-.577 0-1.148.1-1.712.298-.55.184-1.02.439-1.409.765l-1.127-2.317c.59-.439 1.295-.779 2.114-1.02a9.148 9.148 0 012.556-.361zm-.241 9.542c.537 0 1.013-.127 1.429-.382.416-.27.712-.66.886-1.17V46.81h-2.154c-1.289 0-1.933.446-1.933 1.339 0 .425.155.765.463 1.02.322.24.759.361 1.309.361zm21.768-9.542c1.355 0 2.429.425 3.221 1.275.805.836 1.208 2.097 1.208 3.783v6.546h-3.141v-6.036c0-.907-.181-1.58-.543-2.019-.349-.453-.853-.68-1.51-.68-.739 0-1.323.255-1.752.765-.43.496-.644 1.24-.644 2.231v5.739h-3.141v-6.036c0-1.8-.685-2.699-2.054-2.699-.724 0-1.302.255-1.731.765-.43.496-.644 1.24-.644 2.231v5.739h-3.141V40.157h3v1.318c.402-.482.892-.85 1.469-1.105a4.826 4.826 0 011.933-.383c.765 0 1.457.163 2.074.489a3.673 3.673 0 011.49 1.381c.443-.595 1-1.055 1.671-1.381a5.129 5.129 0 012.235-.489zm13.244 0c1.006 0 1.919.248 2.738.744.832.481 1.483 1.169 1.953 2.061.47.879.704 1.906.704 3.082s-.234 2.21-.704 3.103a5.21 5.21 0 01-1.953 2.061c-.819.482-1.732.723-2.738.723-1.383 0-2.47-.46-3.262-1.382v6.173l-3.141-.839V40.157h3v1.318c.779-.992 1.913-1.488 3.403-1.488zm-.544 9.053c.806 0 1.463-.283 1.973-.85.524-.58.785-1.353.785-2.316 0-.964-.261-1.729-.785-2.295-.51-.581-1.167-.872-1.973-.872-.805 0-1.47.29-1.993.872-.51.566-.765 1.331-.765 2.295 0 .963.255 1.735.765 2.316.523.567 1.188.85 1.993.85z" fill="#fff"/>
  <ellipse cx="17.794" cy="17.765" rx="17.794" ry="17.765" fill="#0BF082"/>
  <path fill-rule="evenodd" clip-rule="evenodd" d="M36.876 17.765H17.793v34.832h19.083a9.316 9.316 0 004.604-17.416 9.316 9.316 0 00-4.604-17.416z" fill="#047AF3"/>
  <path fill-rule="evenodd" clip-rule="evenodd" d="M17.794 35.53c9.827 0 17.794-7.954 17.794-17.765H17.793V35.53z" fill="#0DC0CB"/>
</svg>